<svg width="1200" height="300" viewBox="0 0 1200 300" fill="none" xmlns="http://www.w3.org/2000/svg">
<path d="M177.372 241L183.716 243.959L162.5 288.976L162.5 272L177.372 241Z" fill="url(#paint0_linear_1011_372)"/>
<path d="M177.372 241L183.716 243.959L162.5 288.976L162.5 272L177.372 241Z" fill="url(#paint1_linear_1011_372)"/>
<path d="M121.147 251.149L126.097 246.199L143 262L151 271L151 289C136 262 121.147 251.149 121.147 251.149Z" fill="url(#paint2_linear_1011_372)"/>
<path d="M146 146H155V289H146V146Z" fill="url(#paint3_linear_1011_372)"/>
<path d="M172.5 199L177 203L169 245L165 289.262L156.195 289.262L161.195 243.5L172.5 199Z" fill="url(#paint4_linear_1011_372)"/>
<path d="M172.5 199L177 203L169 245L165 289.262L156.195 289.262L161.195 243.5L172.5 199Z" fill="url(#paint5_linear_1011_372)"/>
<path d="M106.25 146L106.25 135C121.871 155.112 139 163.5 146.25 186.5L146.25 197.5C146.25 197.5 137.81 179.556 130 169.5C122.19 159.444 106.25 146 106.25 146Z" fill="url(#paint6_linear_1011_372)"/>
<path d="M111.09 106.202C109.735 104.45 109 102.298 109 100.084V76.1776C109 74.1101 109.641 72.0935 110.834 70.4052L141.884 26.4817C145.854 20.8646 154.179 20.8408 158.182 26.4351L189.633 70.3901C190.847 72.0874 191.5 74.1221 191.5 76.2091V100.051C191.5 102.286 190.751 104.456 189.373 106.216L157.921 146.384C153.903 151.516 146.127 151.493 142.138 146.337L111.09 106.202Z" fill="url(#paint7_linear_1011_372)"/>
<path d="M65.9679 247.348C63.7709 247.068 61.7292 246.066 60.1632 244.5L43.2591 227.596C41.7972 226.134 40.8243 224.254 40.4744 222.217L31.371 169.203C30.2069 162.423 36.0766 156.52 42.8627 157.645L96.1826 166.487C98.2415 166.829 100.142 167.806 101.618 169.282L118.476 186.14C120.057 187.72 121.062 189.785 121.332 192.003L127.495 242.646C128.282 249.117 122.768 254.599 116.302 253.774L65.9679 247.348Z" fill="url(#paint8_linear_1011_372)"/>
<path d="M179.044 191.968C179.325 189.771 180.326 187.729 181.893 186.163L198.797 169.259C200.258 167.797 202.138 166.824 204.175 166.474L257.189 157.371C263.969 156.207 269.872 162.077 268.747 168.863L259.905 222.183C259.563 224.241 258.586 226.142 257.111 227.618L240.252 244.476C238.672 246.057 236.608 247.062 234.389 247.332L183.746 253.495C177.275 254.282 171.793 248.768 172.618 242.302L179.044 191.968Z" fill="url(#paint9_linear_1011_372)"/>
<path d="M178.991 147.968C179.271 145.771 180.273 143.729 181.839 142.163L198.743 125.259C200.205 123.797 202.084 122.824 204.122 122.474L257.136 113.371C263.915 112.207 269.819 118.077 268.694 124.863L259.852 178.183C259.51 180.241 258.533 182.142 257.057 183.618L240.199 200.476C238.618 202.057 236.554 203.062 234.336 203.332L183.693 209.495C177.222 210.282 171.74 204.768 172.565 198.302L178.991 147.968Z" fill="url(#paint10_linear_1011_372)"/>
<path d="M405.058 165.2C405.058 174.725 406.848 182.072 410.427 187.24C414.103 192.307 419.713 194.84 427.258 194.84C430.546 194.84 433.787 194.435 436.979 193.624C440.171 192.813 443.992 191.395 448.441 189.368L452.649 200.616C447.909 202.845 443.411 204.467 439.155 205.48C434.899 206.493 430.788 207 426.822 207C415.408 207 406.751 203.251 400.851 195.752C394.95 188.253 392 178.069 392 165.2V142.4C392 129.531 394.95 119.347 400.851 111.848C406.751 104.349 415.408 100.6 426.822 100.6C430.788 100.6 434.899 101.107 439.155 102.12C443.508 103.133 447.909 104.755 452.359 106.984L448.296 118.384C440.461 114.736 433.448 112.912 427.258 112.912C419.713 112.912 414.103 115.445 410.427 120.512C406.848 125.579 405.058 132.875 405.058 142.4V165.2Z" fill="#137500"/>
<path d="M522.924 206.24C518.474 206.24 514.895 205.176 512.187 203.048C509.575 200.92 507.737 198.285 506.673 195.144C501.934 199.501 497.629 202.592 493.76 204.416C489.891 206.139 486.022 207 482.153 207C475.865 207 471.222 204.872 468.224 200.616C465.225 196.36 463.726 191.141 463.726 184.96C463.726 180.805 464.451 177.107 465.902 173.864C467.353 170.621 469.82 168.088 473.302 166.264C476.784 164.339 481.476 163.376 487.376 163.376C489.988 163.376 492.841 163.579 495.936 163.984C499.032 164.288 502.175 164.693 505.368 165.2V155.016C505.368 149.341 504.158 145.491 501.74 143.464C499.419 141.336 495.985 140.272 491.439 140.272C485.248 140.272 478.332 142.045 470.69 145.592L466.918 135.256C471.367 133.128 475.623 131.507 479.686 130.392C483.749 129.277 487.86 128.72 492.019 128.72C498.79 128.72 503.965 129.885 507.544 132.216C511.123 134.547 513.589 137.637 514.944 141.488C516.298 145.339 516.975 149.544 516.975 154.104V186.632C516.975 188.963 517.41 190.939 518.281 192.56C519.151 194.08 520.892 194.84 523.504 194.84H525.1V206.24H522.924ZM475.478 184.808C475.478 188.253 476.252 191.04 477.8 193.168C479.348 195.296 481.572 196.36 484.474 196.36C486.989 196.36 489.891 195.6 493.18 194.08C496.468 192.459 500.531 189.267 505.368 184.504V174.928C498.79 173.813 492.986 173.256 487.956 173.256C483.507 173.256 480.315 174.219 478.38 176.144C476.446 178.069 475.478 180.957 475.478 184.808Z" fill="#137500"/>
<path d="M579.679 141.184C575.326 141.184 571.07 141.995 566.911 143.616C562.848 145.237 558.495 148.328 553.852 152.888V205.48H541.955V130.24H553.272V142.4C558.205 137.333 562.703 133.787 566.766 131.76C570.925 129.733 575.229 128.72 579.679 128.72V141.184Z" fill="#137500"/>
<path d="M653.268 172.344C653.268 182.883 650.753 191.293 645.723 197.576C640.694 203.859 633.294 207 623.524 207C613.851 207 604.275 204.315 594.796 198.944V93H606.693V140.424C611.046 136.168 615.012 133.179 618.591 131.456C622.267 129.632 625.991 128.72 629.763 128.72C637.308 128.72 643.112 131.76 647.174 137.84C651.237 143.92 653.268 152.483 653.268 163.528V172.344ZM626.861 140.424C624.153 140.424 621.251 141.184 618.156 142.704C615.157 144.224 611.336 147.365 606.693 152.128V191.952C612.4 194.485 617.769 195.752 622.799 195.752C629.28 195.752 633.923 193.675 636.728 189.52C639.533 185.264 640.935 179.539 640.935 172.344V163.528C640.935 155.624 639.775 149.797 637.453 146.048C635.132 142.299 631.601 140.424 626.861 140.424Z" fill="#137500"/>
<path d="M732.164 163.224V172.344C732.164 183.085 729.504 191.547 724.184 197.728C718.96 203.909 711.464 207 701.694 207C692.021 207 684.525 203.909 679.205 197.728C673.885 191.547 671.225 183.085 671.225 172.344V163.224C671.225 152.685 673.836 144.325 679.06 138.144C684.38 131.861 691.925 128.72 701.694 128.72C711.464 128.72 718.96 131.861 724.184 138.144C729.504 144.325 732.164 152.685 732.164 163.224ZM719.831 163.224C719.831 156.029 718.283 150.405 715.188 146.352C712.093 142.197 707.595 140.12 701.694 140.12C695.891 140.12 691.393 142.197 688.201 146.352C685.105 150.405 683.558 156.029 683.558 163.224V172.344C683.558 179.843 685.105 185.619 688.201 189.672C691.393 193.725 695.891 195.752 701.694 195.752C707.595 195.752 712.093 193.725 715.188 189.672C718.283 185.619 719.831 179.843 719.831 172.344V163.224Z" fill="#137500"/>
<path d="M788.317 140.424C785.609 140.424 782.417 141.133 778.741 142.552C775.162 143.971 770.809 146.859 765.683 151.216V205.48H753.785V130.24H765.102V140.728C770.229 136.168 774.872 133.027 779.031 131.304C783.287 129.581 787.35 128.72 791.219 128.72C797.893 128.72 802.971 130.949 806.454 135.408C810.033 139.765 811.822 145.997 811.822 154.104V205.48H799.924V155.928C799.924 145.592 796.055 140.424 788.317 140.424Z" fill="#137500"/>
<path d="M839.287 205.48V102.12H870.046C879.526 102.12 886.732 104.755 891.665 110.024C896.695 115.192 899.21 122.133 899.21 130.848V138.904C899.21 147.619 896.695 154.611 891.665 159.88C886.732 165.149 879.526 167.784 870.046 167.784H851.91V205.48H839.287ZM870.046 114.584H851.91V155.472H870.046C875.27 155.472 879.236 154.003 881.944 151.064C884.749 148.125 886.152 144.072 886.152 138.904V130.848C886.152 125.781 884.749 121.829 881.944 118.992C879.236 116.053 875.27 114.584 870.046 114.584Z" fill="#137500"/>
<path d="M970.813 206.24C966.364 206.24 962.785 205.176 960.077 203.048C957.465 200.92 955.627 198.285 954.563 195.144C949.823 199.501 945.519 202.592 941.65 204.416C937.781 206.139 933.911 207 930.042 207C923.755 207 919.112 204.872 916.113 200.616C913.115 196.36 911.615 191.141 911.615 184.96C911.615 180.805 912.341 177.107 913.792 173.864C915.243 170.621 917.709 168.088 921.192 166.264C924.674 164.339 929.365 163.376 935.266 163.376C937.877 163.376 940.731 163.579 943.826 163.984C946.921 164.288 950.065 164.693 953.257 165.2V155.016C953.257 149.341 952.048 145.491 949.63 143.464C947.308 141.336 943.874 140.272 939.328 140.272C933.138 140.272 926.222 142.045 918.58 145.592L914.808 135.256C919.257 133.128 923.513 131.507 927.576 130.392C931.638 129.277 935.749 128.72 939.909 128.72C946.68 128.72 951.855 129.885 955.434 132.216C959.013 134.547 961.479 137.637 962.833 141.488C964.188 145.339 964.865 149.544 964.865 154.104V186.632C964.865 188.963 965.3 190.939 966.17 192.56C967.041 194.08 968.782 194.84 971.394 194.84H972.99V206.24H970.813ZM923.368 184.808C923.368 188.253 924.142 191.04 925.69 193.168C927.237 195.296 929.462 196.36 932.364 196.36C934.879 196.36 937.781 195.6 941.069 194.08C944.358 192.459 948.421 189.267 953.257 184.504V174.928C946.68 173.813 940.876 173.256 935.846 173.256C931.397 173.256 928.204 174.219 926.27 176.144C924.335 178.069 923.368 180.957 923.368 184.808Z" fill="#137500"/>
<path d="M1029.31 202.744C1023.89 205.581 1018.14 207 1012.04 207C1006.82 207 1002.71 205.885 999.711 203.656C996.809 201.427 994.729 198.437 993.472 194.688C992.311 190.939 991.731 186.784 991.731 182.224V141.184H979.253V130.24H991.731V109.264H1003.63V130.24H1027.13V141.184H1003.63V181.768C1003.63 187.037 1004.45 190.685 1006.09 192.712C1007.84 194.637 1010.5 195.6 1014.07 195.6C1015.82 195.6 1017.61 195.397 1019.44 194.992C1021.38 194.485 1023.46 193.675 1025.68 192.56L1029.31 202.744Z" fill="#137500"/>
<path d="M1079.49 140.424C1076.79 140.424 1073.59 141.133 1069.92 142.552C1066.34 143.971 1061.99 146.859 1056.86 151.216V205.48H1044.96V93H1056.86V140.272C1061.89 135.813 1066.44 132.773 1070.5 131.152C1074.56 129.531 1078.53 128.72 1082.4 128.72C1089.07 128.72 1094.15 130.949 1097.63 135.408C1101.21 139.765 1103 145.997 1103 154.104V205.48H1091.1V155.928C1091.1 145.592 1087.23 140.424 1079.49 140.424Z" fill="#137500"/>
<defs>
<linearGradient id="paint0_linear_1011_372" x1="177.5" y1="250.5" x2="158.172" y2="290.456" gradientUnits="userSpaceOnUse">
<stop stop-color="#1DB000"/>
<stop offset="1" stop-color="#0C4A00"/>
</linearGradient>
<linearGradient id="paint1_linear_1011_372" x1="177.5" y1="250.5" x2="158.172" y2="290.456" gradientUnits="userSpaceOnUse">
<stop stop-color="#1DB000"/>
<stop offset="1" stop-color="#0C4A00"/>
</linearGradient>
<linearGradient id="paint2_linear_1011_372" x1="125" y1="250" x2="153.475" y2="278.527" gradientUnits="userSpaceOnUse">
<stop stop-color="#1DB000"/>
<stop offset="1" stop-color="#0C4A00"/>
</linearGradient>
<linearGradient id="paint3_linear_1011_372" x1="151" y1="149.5" x2="150.5" y2="289" gradientUnits="userSpaceOnUse">
<stop stop-color="#1DB000"/>
<stop offset="1" stop-color="#0C4A00"/>
</linearGradient>
<linearGradient id="paint4_linear_1011_372" x1="175" y1="205" x2="143.97" y2="287.956" gradientUnits="userSpaceOnUse">
<stop stop-color="#1DB000"/>
<stop offset="1" stop-color="#0C4A00"/>
</linearGradient>
<linearGradient id="paint5_linear_1011_372" x1="175" y1="205" x2="143.97" y2="287.956" gradientUnits="userSpaceOnUse">
<stop stop-color="#1DB000"/>
<stop offset="1" stop-color="#0C4A00"/>
</linearGradient>
<linearGradient id="paint6_linear_1011_372" x1="100.625" y1="140.625" x2="151.875" y2="191.875" gradientUnits="userSpaceOnUse">
<stop stop-color="#1DB000"/>
<stop offset="1" stop-color="#0C4A00"/>
</linearGradient>
<linearGradient id="paint7_linear_1011_372" x1="150.25" y1="15" x2="150" y2="149.5" gradientUnits="userSpaceOnUse">
<stop stop-color="#0C4A00"/>
<stop offset="1" stop-color="#1DB000"/>
</linearGradient>
<linearGradient id="paint8_linear_1011_372" x1="97.5" y1="169.5" x2="79" y2="323" gradientUnits="userSpaceOnUse">
<stop stop-color="#0C4A00"/>
<stop offset="0.515871" stop-color="#1DB000"/>
</linearGradient>
<linearGradient id="paint9_linear_1011_372" x1="271.224" y1="155.168" x2="177" y2="251.5" gradientUnits="userSpaceOnUse">
<stop stop-color="#0C4A00"/>
<stop offset="1" stop-color="#1DB000"/>
</linearGradient>
<linearGradient id="paint10_linear_1011_372" x1="271.171" y1="111.168" x2="175.5" y2="206" gradientUnits="userSpaceOnUse">
<stop stop-color="#0C4A00"/>
<stop offset="0.9999" stop-color="#1DB000"/>
</linearGradient>
</defs>
</svg>
